<svg width="56" height="56" viewBox="0 0 56 56" fill="none" xmlns="http://www.w3.org/2000/svg">
<rect width="56" height="56" rx="8" fill="#151416"/>
<path d="M0 8C0 3.58172 3.58172 0 8 0H48C52.4183 0 56 3.58172 56 8V16H0V8Z" fill="#313131"/>
<path d="M20.4091 47V44.9545L28.0909 36.5455C28.9924 35.5606 29.7348 34.7045 30.3182 33.9773C30.9015 33.2424 31.3333 32.553 31.6136 31.9091C31.9015 31.2576 32.0455 30.5758 32.0455 29.8636C32.0455 29.0455 31.8485 28.3371 31.4545 27.7386C31.0682 27.1402 30.5379 26.678 29.8636 26.3523C29.1894 26.0265 28.4318 25.8636 27.5909 25.8636C26.697 25.8636 25.9167 26.0492 25.25 26.4205C24.5909 26.7841 24.0795 27.2955 23.7159 27.9545C23.3598 28.6136 23.1818 29.3864 23.1818 30.2727H20.5C20.5 28.9091 20.8144 27.7121 21.4432 26.6818C22.072 25.6515 22.928 24.8485 24.0114 24.2727C25.1023 23.697 26.3258 23.4091 27.6818 23.4091C29.0455 23.4091 30.2538 23.697 31.3068 24.2727C32.3598 24.8485 33.1856 25.625 33.7841 26.6023C34.3826 27.5795 34.6818 28.6667 34.6818 29.8636C34.6818 30.7197 34.5265 31.5568 34.2159 32.375C33.9129 33.1856 33.3826 34.0909 32.625 35.0909C31.875 36.0833 30.8333 37.2955 29.5 38.7273L24.2727 44.3182V44.5H35.0909V47H20.4091Z" fill="#EBEBEB"/>
<path d="M21.8693 5.18182H22.9148V9.27273C22.9129 9.64773 22.8333 9.97064 22.6761 10.2415C22.5189 10.5104 22.2992 10.7178 22.017 10.8636C21.7367 11.0076 21.41 11.0795 21.0369 11.0795C20.696 11.0795 20.3892 11.0189 20.1165 10.8977C19.8456 10.7746 19.6307 10.5928 19.4716 10.3523C19.3125 10.1117 19.233 9.8125 19.233 9.45455H20.2812C20.2831 9.61174 20.3172 9.74716 20.3835 9.8608C20.4517 9.97443 20.5455 10.0616 20.6648 10.1222C20.7841 10.1828 20.9214 10.2131 21.0767 10.2131C21.2453 10.2131 21.3883 10.178 21.5057 10.108C21.6231 10.036 21.7121 9.92992 21.7727 9.78977C21.8352 9.64962 21.8674 9.47727 21.8693 9.27273V5.18182ZM28.5259 5.18182H29.5798V8.98295C29.5798 9.39962 29.4813 9.7661 29.2844 10.0824C29.0893 10.3987 28.8147 10.6458 28.4605 10.8239C28.1063 11 27.6925 11.0881 27.219 11.0881C26.7437 11.0881 26.3289 11 25.9747 10.8239C25.6205 10.6458 25.3459 10.3987 25.1509 10.0824C24.9558 9.7661 24.8582 9.39962 24.8582 8.98295V5.18182H25.9122V8.89489C25.9122 9.13731 25.9652 9.35322 26.0713 9.54261C26.1793 9.73201 26.3308 9.88068 26.5259 9.98864C26.7209 10.0947 26.952 10.1477 27.219 10.1477C27.4861 10.1477 27.7171 10.0947 27.9122 9.98864C28.1092 9.88068 28.2607 9.73201 28.3668 9.54261C28.4728 9.35322 28.5259 9.13731 28.5259 8.89489V5.18182ZM36.3067 5.18182V11H35.3692L32.6277 7.03693H32.5794V11H31.5254V5.18182H32.4686L35.2072 9.14773H35.2584V5.18182H36.3067Z" fill="#C7C7C7"/>
</svg>
